<svg height="512pt" viewBox="0 0 512 512.00026" width="512pt" xmlns="http://www.w3.org/2000/svg"><path d="m224.34375 309.847656-40.863281 40.863282c-6.117188 6.113281-16.066407 6.132812-22.199219 0-6.132812-6.128907-6.132812-16.070313 0-22.199219l40.863281-40.863281c6.128907-6.121094 16.070313-6.121094 22.199219 0 6.121094 6.128906 6.121094 16.066406 0 22.199218zm6.507812-112.644531-226.253906 226.265625c-6.128906 6.128906-6.128906 16.0625 0 22.191406l61.742188 61.742188c6.128906 6.128906 16.066406 6.128906 22.195312 0l226.410156-226.421875c-39.140624-14.96875-69.457031-46.113281-84.09375-83.777344zm0 0"/><path d="m286.246094 61.679688c-45.210938 45.1875-45.53125 118.859374.292968 164.367187 45.140626 44.855469 119.132813 44.347656 164.789063-1.308594l18.160156-18.152343-164.074219-164.074219zm0 0"/><path d="m506.304688 142.328125-136.644532-136.644531c-7.574218-7.578125-19.847656-7.582032-27.429687 0l-14.628907 14.636718 164.066407 164.066407c16.855469-16.84375 14.070312-13.964844 16.5625-16.875 5.617187-7.621094 4.902343-18.355469-1.925781-25.183594zm0 0"/></svg>