<?xml version="1.0" encoding="utf-8"?>
<!-- Generator: Adobe Illustrator 21.1.0, SVG Export Plug-In . SVG Version: 6.00 Build 0)  -->
<svg version="1.2" baseProfile="tiny" id="Layer_1" xmlns="http://www.w3.org/2000/svg" xmlns:xlink="http://www.w3.org/1999/xlink"
	 x="0px" y="0px" viewBox="0 0 600 600" xml:space="preserve">
<path fill="#FFFFFF" d="M200.6,129.9c1-4.2,1.9-8.3,2.9-12.4c0.3-1.1-0.2-3,1.6-2.8c1.7,0.2,1.5,2,1.4,3.2
	c-1.3,12.1-2.7,24.2-4.8,36.3c-3,17.9-6.8,35.7-7.3,54c-0.1,2.6-0.5,5.1-0.9,7.6c-0.1,0.7,0,2-1,1.9c-1.1-0.1-1-1.3-1-2.1
	c0.2-4.9,0.6-9.9,0.8-14.8c0.1-1.2,0-2.4-0.7-3.7c-0.6,2.1-1.4,4.2-1.8,6.4c-1.1,5.8-2.8,11.4-5,16.8c-0.6,1.4-1.3,3.1-2.9,3.1
	c-1.8,0-1.6-1.9-1.9-3.2c-0.7-3-0.1-6-0.4-8.9c-1.8-14.1,6.3-26.2,8.1-39.6c0.3-2.1,0.9-4.1,1.3-6.2c0.2-1.2-0.1-1.9-1.5-1.6
	c-3.6,0.8-6.9,2.5-10,4.4c-5.2,3.2-11.1,5-16.7,7.5c-4.7,2.1-9.6,3.5-13.5,7.1c-1.4,1.4-1.4,3.2-1.8,4.8c-2.9,11.3-5.9,22.6-8.5,34
	c-0.8,3.4-0.7,6.9-1,10.4c-0.1,1.2,0,2.8-1.7,2.8c-1.8,0-1.5-1.6-1.7-2.8c-1.8-13.1,2.3-25.2,5.9-37.5c0.9-2.9,2.9-5.2,3.4-8.3
	c0.3-1.8-0.2-2.2-1.8-1.8c-0.9,0.2-1.7,0.5-2.5,0.7c-1,0.2-2.1,0.7-2.6-0.6c-0.5-1.3,0.7-1.7,1.6-2.1c0.5-0.2,0.9-0.4,1.7-0.7
	c-1.3-0.6-2.4-1.1-3.4-1.6c-0.8-0.5-1.3-1.4-0.9-2.2c0.4-0.9,1.3-0.2,2-0.1c0.7,0.2,1.4,0.6,2.1,0.7c4.7,0.9,6,0,7.1-4.7
	c2.7-11.7,4.8-23.5,6.3-35.4c0.1-1.2-0.7-1.7-1.5-2.4c-1.4-1.2-2.2-2.5,0.2-3.5c1-0.4,1.1-1.4,0.9-2.2c-0.6-2.8,0-5.5,0.2-8.2
	c0.1-1.5,0-3.4,2.5-3.2c0.9,0,0.6-1.2,0.9-1.8c0.9-2.5-0.9-6.2,3.4-7.2c0.6-0.1,1-1.3,1.9-0.7c0.9,0.6,0.8,1.6,0.7,2.6
	c-1,6-2,12-3.1,17.9c-3,15-6,29.9-9.1,44.8c-0.2,0.8-0.7,1.8,0,2.5c0.7,0.7,1.6-0.1,2.3-0.3c6.9-2.6,13.4-6.1,20-9.5
	c3.4-1.7,6.7-3.6,10.2-5.2c2.1-1,4.5,0.1,6.7-0.9c1.7-0.8,2.4-1.7,2.6-3.4c1.6-12.1,3.1-24.2,4.9-36.2c0.9-5.9,1.7-11.7,2-17.7
	c0.1-1.8,0.9-2.8,2.6-1.1c1,1,1.4,0.4,1.6-0.5c0.3-1.2,0.4-2.3,0.7-3.5c0.2-1,0.5-2.3,1.9-2c1.5,0.3,1.1,1.5,0.9,2.6
	c-1.5,7-3.4,14-4.1,21.1c-0.3,3.1-0.7,6.1-1.1,9.2C200,129.7,200.3,129.8,200.6,129.9z M182.4,216.7c4.4-3.4,16.3-62.9,14-68.7
	C193.1,171.1,186.7,193.7,182.4,216.7z M199.3,136.3c-0.1-0.1-0.1-0.1-0.1-0.2c-0.1,0.1-0.1,0.1-0.2,0.2c0,0,0.1,0.1,0.1,0.1
	C199.2,136.4,199.3,136.4,199.3,136.3z"/>
<path fill="#FFFFFF" d="M367.1,204.5c-0.9,5.9-1.8,11.9-2.7,17.8c-0.1,0.9,0.1,2.2-1.3,2.1c-1.3-0.1-1.3-1.4-1.2-2.4
	c0.9-7.3,2-14.6,2.7-21.9c1.5-15.6,2.9-31.2,1.1-46.9c-0.4-3.1,2.2-5.3,2-8.3c0-0.2,0.8-0.7,1.2-0.7c0.8,0,1.2,0.8,1.2,1.4
	c0.2,3.7,0.3,7.3,0.5,11c0.5,7.9,1,15.8,1.5,24.4c1.9-3,3.6-5.5,6-7.3c9.3-7,19.2-12.9,31.3-13.3c6.8-0.2,13.6,5.5,15.4,12
	c0.2,0.7,0,1.7,0.9,1.9c0.9,0.3,1.4-0.7,1.9-1.2c5.3-5.5,10-11.8,17-15.4c2.9-1.5,6-2.8,9.5-1.6c1.2,0.4,2.2,0.1,2.3-1.6
	c0.2-2.6,2.1-4.2,4-5.6c1.8-1.3,2.3,0.4,2.2,1.8c-0.6,6.7-1.1,13.5-2.1,20.1c-1,6.3-2.1,12.6-4.6,18.5c-1.1,2.6-2.6,4.8-4.7,6.7
	c-2.9,2.6-3.3,7.3-0.6,11.8c2.6,4.4,5.8,8.2,10.6,10.5c2.1,1,3.8,1,5.7-0.5c2.3-1.9,4.8-3.7,7.4-5.3c-2.3,3.8-5,7.5-9.5,8.8
	c-3.5,1.1-6.3-1.2-8.7-3.2c-4.7-3.8-8.7-8.1-9.9-14.4c-0.3-1.3-1.2-1.6-2.2-0.5c-3.6,3.9-8.4,5.5-13.4,6.8
	c-6.2,1.6-12.1-0.5-15.3-5.2c-3.2-4.8-3-12.4,0.4-17.2c2.3-3.2,4.6-6.4,7-9.5c1.6-2.2-1-10.1-3.6-10.7c-1.3-0.3-1.5,0.6-1.8,1.6
	c-0.5,1.6,0,3.5-1.4,5.3c-1.2-1.7-1.3-3.5-1.1-5.1c0.4-3.6-1.6-4.8-4.6-5.2c-9.9-1.4-20.1,4.3-25,13.1c-1.6,2.9-3.4,5.2-3.1,8.8
	c0.1,1.2-1.8,2.7-2.9,4c-2.3,2.5-3.2,5.5-3,8.8c0.1,2.1-0.9,4-1.9,5.6c-1.5,2.1-1.6,4.1-1.1,6.4c0.9,4.4-0.6,8.5-1.7,12.6
	c-0.4,1.8-2.5,1.7-3.7,1.8c-1.4,0.2-1.1-1.7-1-2.7c0.2-5.1,0.4-10.2,0.6-15.4c0-0.8-0.1-1.7-0.1-2.5
	C367.4,204.5,367.3,204.5,367.1,204.5z M426.4,197c5.7-0.7,11.7-1.6,17.4-3.9c0.8-0.3,1.4-0.9,1.4-1.8c0.7-8.3,2.7-16.4,5.5-24.2
	c0.2-0.6,0.5-1.3-0.2-1.7c-0.4-0.2-1.2-0.1-1.6,0.1c-5.2,4-12.3,4.3-16.9,9.7c-4.2,4.9-8.3,9.8-10.7,15.9
	C420.1,194.4,422.4,197.1,426.4,197z M428.3,208c5.7-1.3,11.1-4.9,16.4-8.8c0.9-0.7,1.1-1.9,0.4-2.9c-0.6-1-1.6-0.3-2.4-0.1
	c-7.8,2.1-15.5,5-23.9,2.7c-1.5-0.4-1.7,0.6-1.3,1.8C418.5,204.5,423.2,208,428.3,208z M455.4,174.4c-0.1-0.7-0.1-1.5-0.3-2.2
	c-0.2-1,0.1-2.6-1.3-2.8c-1.5-0.2-1.7,1.5-2,2.5c-1.1,4.7-2.2,9.4-3.2,14.1c-0.2,0.9-0.8,2.4,0.4,2.9c1.1,0.4,1.9-0.8,2.8-1.6
	C455.6,183.7,455.7,179.1,455.4,174.4z M372.9,198c3.3-9.3,6.3-18,12.4-25.9C376.4,175.6,370.6,187.8,372.9,198z M459.1,162.5
	c1.6-3,1.7-5.8,0.9-8.9C457.2,156,456.8,159.5,459.1,162.5z M418.4,191c-0.5,0.5-0.8,0.8-0.4,1.4C418.4,192.1,418.7,191.7,418.4,191
	z"/>
<path fill="#FFFFFF" d="M348.4,72.1c1.7,2.6,1.5,5.7,1.9,8.5c0.7,4.2,0.2,8.4,0,12.5c0,0.7,0.1,1.5,1.1,1.4c0.9-0.1,0.6-0.9,0.6-1.5
	c-0.2-1.5-0.1-2.9,0.7-4.2c0.7-1.1,1.6-1.6,2.8-0.8c1.1,0.7,1,1.5,0.4,2.7c-3.2,5.9-3.2,12.5-3.7,18.8c-1.6,20-3.2,40.1-3.1,60.2
	c0,5.4-1.3,10.8,0.4,16.2c0.3,0.8-0.8,2-1.1,3c-1.2,3.6,1.1,6.5,1.8,9.8c1.2,5.4,0.4,10.4-2.6,15.1c-0.7,1.1-1.2,2-0.6,3.3
	c0.5,1.2-0.2,2.1-1.4,2.4c-1.3,0.3-1.6-0.6-1.7-1.6c-0.3-2.4-0.6-4.9-1-7.9c-0.6,0.8-1,1.1-1.1,1.4c-2.1,6.8-7.4,9.7-13.7,11.4
	c-9.4,2.5-18.3,2.3-26.4-3.9c-4.9-3.7-11.3-11.9-8.7-19.8c0.3-0.9,0.4-2.2,1-2.8c4.1-3.9,6.3-8.9,8.4-14c2.1-5.1,6.9-6.9,11.9-8
	c8.1-1.8,16.4-3.5,24.6-3.1c4.8,0.2,5.2-1.2,5.5-5.1c1.1-14.2,3-28.4,3.7-42.6c0.6-10.2-0.1-20.4-0.3-30.6
	c-0.1-6.2-0.4-12.3-0.6-18.5C347.5,73.6,347.3,72.7,348.4,72.1z M315.8,183.3c0.3,3.4-2.6,3-4.1,4.2c-2.2,1.7-1.3,5.9-5.1,6.5
	c0,0,0.1,0.4,0.1,0.6c-0.8,1.7,0,4.3-0.9,5.1c-2.4,2.3-0.2,3.4,0.8,4.3c2.9,2.5,4.5,6.7,9.7,6.5c2.3-0.1,4.7,0.5,6.9-0.5
	c3-1.4,6-2.8,8.9-4.4c6.5-3.7,8.6-11.1,5.3-17.7c-0.3-0.6-0.5-1,0-1.5c0.6-0.4,1.1-0.2,1.5,0.2c1.5,1.3,2.1,3,2.1,5
	c0,1.6,0.1,3.1,1.5,5c0.2-1.2,0.4-1.7,0.4-2.3c0.6-6.2-4.2-12.6-10.8-14.3c-0.9-0.2-2.1-0.6-2.9-0.3c-3.8,1.4-7.9,2-11.2,4.3
	C317.2,184.6,316.6,184.5,315.8,183.3z M299,195.2c-2.8,1.1-4.8,7-3.7,10.6c1.5,4.8,4.6,8.3,8.4,11.4c9.8,7.9,24.2,4.8,33.3-0.8
	c5-3.1,6.3-10.6,2.9-14.5c-0.4,0.5-0.7,1.1-1.1,1.5c-2.4,2.6-2,6.6-5.1,9.1c-1.9,1.5-4.2,1.8-5.9,3.4c-1.7,1.5-3.5,1.7-5.6,1
	c-3.4-1.1-6.6-2.4-10.3-2.4c-7.4,0-13.2-6.5-13-14C299,198.8,299,197.1,299,195.2z M323,175.4c-8.8,0.2-19.8,4.3-19.6,11.6
	C310.7,184.9,315.5,178.9,323,175.4z M343.8,184.7c0-2.6,0.2-5.3-0.1-7.9c-0.2-1.9-2.1-2.3-3.3-1.2c-2.2,1.8-3.7,1.1-5.1-0.7
	c-1.2-1.5-2.9-1.2-3.8-0.3c-1.2,1.3,0.9,1,1.3,1.6C335.8,179.7,340.2,181.2,343.8,184.7z M346.2,211.1c3.2-3,4.1-9.7,1.6-12.2
	C347.3,203.1,346.8,206.9,346.2,211.1z M327.8,210.8c2.5,0.5,4.5-0.1,6.2-3.2C331.3,209,329.5,209.9,327.8,210.8z M304.3,205.6
	c0.6,2,1.5,3.7,4.9,4.4C307.1,208.1,305.7,206.8,304.3,205.6z M328.4,213.8c-3,0.4-5,0.6-7.6,1C323.6,216,325.5,215.6,328.4,213.8z
	 M302.5,193.6c1.3-1.4,2.3-2.4,3-4.6C303.8,190.4,301.7,190.7,302.5,193.6z M328.1,175.9c0.8,0.3,1.3,0.5,1.8-0.2
	C329.3,175.1,328.8,175.2,328.1,175.9z"/>
<path fill="#FFFFFF" d="M262.7,215c-1.6,2.3-4.7,2.3-6.4,0.1c-2.4-3.2-2.9-7.1-3.6-10.9c-0.1-0.6-0.2-1.3-0.4-3
	c-1.3,3.2-2.1,5.4-3,7.6c-1.9,4.5-4.7,7.6-10.1,8.3c-7.8,0.9-14.9,0.5-21-5.1c-3.2-2.9-4-6.7-4.4-10.6c-0.9-9,1.9-17.4,4.2-25.9
	c0.2-0.7,0.7-1,1.4-1c0.7,0,1.2,0.4,1.4,1.1c0.2,0.6,0.1,1.4,1.1,1.8c1.9-2.7,0.6-8.8,6.9-7c1,0.3,1.4,1.3,1,2.6
	c-2.3-1.1-2.5,0.9-3.4,2.1c-4.6,6.4-3.4,13.4-2,20.3c0.9,4.3,1.3,8.8,3.2,12.9c1.7,3.7,3.7,4.2,7.2,2.1c7.2-4.2,10.8-11.2,14.7-18
	c3.9-6.9,6.2-14,5.8-21.9c0-0.9,0.1-1.9,0.4-2.8c0.4-1.1-0.2-3.3,1.9-2.7c1.7,0.5,4.6,0.4,3.4,4.1c-1.2,3.8-1.6,7.8-2.4,11.7
	c-0.3,1.2-0.9,2.3-1.3,3.5c-3,9-3,18.1-0.4,27.2C257.7,214,259.6,215.4,262.7,215z M221.5,190.6c-2.3,7.5-0.1,17.9,3.7,18.6
	C223.6,203.3,222.4,197.4,221.5,190.6z M219.1,180.9c-1.8,6.5-3.2,12.8-2.8,19.4c0,0.3,0.6,0.7,0.9,0.7c0.6,0,0.8-0.5,0.7-1.1
	c-0.4-5.4,0.8-10.7,2-15.9C220.3,183,220.7,181.9,219.1,180.9z M246,203.2c-3.1,3.4-6.1,6.8-9.8,9.6
	C240.9,211,243.4,206.9,246,203.2z M245.6,208.8c-1.1,1.5-2.1,3-3.5,4.9C244.7,212.7,245.6,211.1,245.6,208.8z M220.8,210.2
	c0.1-0.1,0.3-0.2,0.4-0.3c-0.4-0.8-0.8-1.5-1.2-2.3c-0.1,0.1-0.2,0.1-0.4,0.2C220,208.6,220.4,209.4,220.8,210.2z M246.9,207.7
	c0.5-1.2,0.8-1.9,1.1-2.5C247.2,205.6,246.7,206.2,246.9,207.7z M230.6,215.1c-0.9-0.5-1.3-0.9-1.7-0.1
	C229.3,215,229.6,215.1,230.6,215.1z"/>
<path fill="#FFFFFF" d="M291.5,121.7c0-6,0-12.1,0-18.1c-0.3,0-0.7,0-1,0c-3,38.6-4.9,77.2-5.7,116.1c0.5-0.3,1-0.5,1.6-0.8
	c0.1,0.2,0.2,0.5,0.1,0.7c-0.3,1.7-0.4,3.4-2.2,4.3c-0.6,0.3-1.1-0.1-1.4-0.6c-0.2-0.4-0.6-0.9-0.5-1.4c0.2-4.8-1.6-9.2-2.2-13.9
	c-1.6-12.7,1-25.1,1.6-37.6c0.6-13,1.9-25.9,2.9-38.9c0.7-9.3,1.7-18.5,2.6-27.8c0.3-2.9,2.9-5.7,4.1-8.8c0.1-0.2,0.8-0.5,1.1-0.4
	c0.9,0.2,1,1.1,1,1.8c-0.2,4.8-0.4,9.6-0.7,14.4C292.6,114.4,292.8,118.1,291.5,121.7z"/>
<path fill="#FFFFFF" d="M291.2,125.9c1.2,2.5,0.6,4.9-0.5,7.3C290.9,130.8,291,128.3,291.2,125.9z"/>
<path fill="#FFFFFF" d="M398.4,166.4c-0.4,1.1-0.9,1.4-1.8,1.3C396.7,166.6,397.4,166.7,398.4,166.4z"/>
<path fill="#FFFFFF" d="M291,134.6c0.5,0.7,0.5,1,0,1.3C290.3,135.5,290.7,135.1,291,134.6z"/>
</svg>
