<?xml version="1.0" encoding="iso-8859-1"?>
<!-- Generator: Adobe Illustrator 18.0.0, SVG Export Plug-In . SVG Version: 6.00 Build 0)  -->
<!DOCTYPE svg PUBLIC "-//W3C//DTD SVG 1.1//EN" "http://www.w3.org/Graphics/SVG/1.1/DTD/svg11.dtd">
<svg version="1.1" id="Capa_1" xmlns="http://www.w3.org/2000/svg" xmlns:xlink="http://www.w3.org/1999/xlink" x="0px" y="0px"
	 viewBox="0 0 57.248 57.248" style="enable-background:new 0 0 57.248 57.248;" xml:space="preserve">
<g>
	<path d="M54.278,5.665l-3.029-3.029L31.133,22.752l-1.414,1.414l-25.46,25.46c10.706-2.721,15.555-5.469,31.485-20.735l0.725-0.803
		l-0.339-0.339c1.966-0.425,5.074-1.395,8.021-3.58c0.229-0.192,5.629-4.762,8.667-9.866l0.064-0.13
		c0.037-0.082,0.394-0.794,1.652-0.794c0.262,0,0.549,0.03,0.853,0.091l0.413,0.082l0.347-0.237
		c0.099-0.067,0.963-0.695,1.087-2.032C57.384,9.667,56.39,7.776,54.278,5.665z M37.936,23.613c-0.828,0-1.5-0.672-1.5-1.5
		s0.672-1.5,1.5-1.5s1.5,0.672,1.5,1.5S38.764,23.613,37.936,23.613z M49.936,11.613c-0.828,0-1.5-0.672-1.5-1.5s0.672-1.5,1.5-1.5
		s1.5,0.672,1.5,1.5S50.764,11.613,49.936,11.613z"/>
	<path d="M37.178,30.283C21.76,45.062,16.302,48.636,4.682,51.583L4.57,51.604l-2.651,0.361L0,53.884l1.761,0.404
		c0.938,0.216,1.937,0.324,2.971,0.324c8.604,0,20.35-7.381,34.908-21.939l0.707-0.707l-2.464-2.464L37.178,30.283z"/>
</g>
<g>
</g>
<g>
</g>
<g>
</g>
<g>
</g>
<g>
</g>
<g>
</g>
<g>
</g>
<g>
</g>
<g>
</g>
<g>
</g>
<g>
</g>
<g>
</g>
<g>
</g>
<g>
</g>
<g>
</g>
</svg>
