<?xml version="1.0" encoding="utf-8"?>
<!-- Generator: Adobe Illustrator 21.1.0, SVG Export Plug-In . SVG Version: 6.00 Build 0)  -->
<svg version="1.2" baseProfile="tiny" id="Layer_1" xmlns="http://www.w3.org/2000/svg" xmlns:xlink="http://www.w3.org/1999/xlink"
	 x="0px" y="0px" viewBox="0 0 600 600" xml:space="preserve">
<g>
	<path fill="#FFFFFF" d="M187.4,122.2c-0.7-7.2,0-14.4-1.2-21.4c-0.3-1.5,0.6-2.9,1.5-3.8c1.1-1,1.7,0.4,2.1,1.2
		c1.4,3.1,2.2,6.4,2.8,9.7c1.9,10.7,4.3,21.4,4.7,32.3c0.3,9.7,1.8,19.3,1.9,29c0,4.1-0.2,8.2,0.9,12.3c0.2,0.7,0.4,1.3,0.9,2.7
		c0.5-1.9,0.7-3,1-4.1c2.9-12.8,5.9-25.5,8.8-38.3c2.6-11.2,5.1-22.4,5.9-34c0.2-3.1,1.4-6,1.5-9.2c0-1.1,1.3-1.4,1.9-2.5
		c1.3-2.6,1.1-5.5,1.6-8.2c0.2-1.2,0-2.4,1.5-2.9c1.6-0.5,1.8,0.8,2.3,1.7c0.1,0.1,0.3,0.3,0.4,0.4c0.8-0.3,0.8-2,2-1.4
		c1.1,0.6,0.9,1.8,0.9,2.8c-0.2,6.5-2.1,12.7-4,18.8c-2.2,7-3.8,14.1-4.3,21.5c-0.1,1.4,0.1,2.4,1.6,3c0.6-0.5-0.3-1.9,0.9-1.9
		c1.7,0.1,2.1,1.8,2.9,3.1c0.5-0.4,0.4-1.5,1.3-1.3c1.1,0.3,1.7,1.1,2.2,2.1c1.6,3.5,4.7,4.3,8,2.4c5.2-3,10.9-5.6,16.4-1.4
		c6.8,5.1,12.8,11,12.7,20.5c0,4,1.3,7.8,1.2,11.8c-0.2,6.3-2.9,11.3-6.3,16.2c-1.7,2.4-3.5,4.7-5.1,7.2c-1.2,1.9,0,3.9,0.9,5.3
		c2.7,4.2,4.2,8.8,6,13.3c0.3,0.7,0.6,1.4,1,2.1c0.7,1.2,0.4,2.1-0.7,2.6c-1.2,0.6-1.6-0.4-1.9-1.3c-1.7-5-4-9.7-6.6-14.2
		c-0.9-1.7-3.6-2.1-4.9-0.7c-3.1,3.2-6.3,6.7-10.8,7.2c-9.3,1-18.1-1.3-18.7-13.3c-0.3-5.7-1.5-11.1-2.8-16.5
		c-2.1-9,0.2-17.2,5.1-24.9c1.7-2.7,3.4-6.1,0.9-10.1c-1.3-2.1-2.5-4.5-3.8-7.4c-0.3,2.1-0.6,3.7-0.8,5.2c-1.7,12.1-4.4,24-7.3,35.8
		c-1.4,5.9-2.6,11.8-4.1,17.7c-0.7,2.9-1.8,5.7-2.2,8.6c-0.1,1.1-1,1.6-2.1,0.9c-0.9-0.6-1.8-0.8-2.7-0.2c-0.9,0.6-0.7,1.6-0.5,2.5
		c0.4,1.6-1.5,2.3-1.4,3.9c0.1,1.9-0.2,3.9-0.4,6c-1.7-0.8-1.7-2.2-1.8-3.5c-0.1-1.7-0.1-3.5,0.4-5.2c0.9-2.5-0.1-4.6-1-6.9
		c-2.2-6.1-2.1-12.6-2.8-18.9c-1.1-9.5-2.5-18.9-3.9-28.4c-1.4-9.6-4.4-18.7-7.3-27.8c-0.1-0.5-0.4-0.9-0.9-2
		c-0.9,3.5-1.8,6.4-2.4,9.3c-2.3,11.3-4,22.7-5.4,34.2c-0.5,3.9-1.2,7.8-0.8,11.8c0.1,0.8-0.1,1.6-0.8,2c-0.8,0.5-1-0.5-1.7-0.8
		c-0.7,2.8-1.5,5.5-2.2,8.2c-0.7,2.8-1.6,5.7-1.5,8.6c0,0.7-0.2,1.5-0.9,1.7c-1.9,0.8-2,2.4-2.1,4.1c-0.1,1.6-1,2.9-1.8,4.3
		c-0.9,1.5-0.5,3.7-0.6,5.6c-0.1,1,0,2.4-1.3,2.4c-1.3,0-1.9-1.1-1.9-2.3c-0.1-3.1,0.5-6.1,1.2-9.1c1.2-4.6,2.5-9.2,3.6-13.8
		c1.5-6.4,1.9-13.1,3.2-19.5c2.2-11,4.8-22,7-33c1.4-6.8,2.4-13.8,3.6-20.6c0.4-2.2-0.6-4.2-1.2-6.2c-0.3-0.9-0.7-1.9,0.1-2.5
		c0.9-0.6,1.4,0.3,2,0.9c0.4,0.3,0.9,0.7,1.1,0c0.9-2.3,2.5-4.4,2.4-7.1c-0.1-1.2,1-2,2.2-2c1.4,0,1.4,1.4,1.3,2.3
		c-1.3,7.6,2.3,14.6,2.8,21.9C186.9,121.2,187.2,121.7,187.4,122.2z M225.7,168.7c-0.2,0.6-0.3,0.8-0.3,1c0,5.2,0,10.4,0,15.6
		c0,1.7,0.5,3.4,1.7,4.5c5.3,5.1,13,5.2,18.7,0.3c1.7-1.4,2.5-2.7,1.1-4.8c-0.7-1-0.9-2.4-1.2-3.6c-3.3-10.7-8.4-20.7-14-30.3
		c-0.3-0.5-0.7-1.3-1.2-0.4c-1.3,2.5-3,4.7-3.6,7.6c-0.6,3.4-0.4,6.8-0.2,10.2c0,0.3-0.1,0.7-0.2,1.1
		C226.3,169.5,226.1,169.3,225.7,168.7z M238.6,150c-0.1,0-0.2,0-0.3,0.1c-0.5-0.8-0.9-1.5-1.4-2.3c-0.4-0.6-0.6-1.7-1.7-1.2
		c-1.1,0.4-0.6,1.3-0.4,2.1c0.1,0.5,0.2,1,0.5,1.5c2.9,4.7,6.1,9.3,8.2,14.4c1.1,2.6,2.6,5,3.9,7.5c1.7,3.4,3.4,6.8,5.2,10.6
		c0.2-0.4,0.3-0.6,0.4-0.8c4.6-8.1,7.6-16.6,8.4-25.9c0.3-3.5-0.6-6.2-3.7-8.1c-0.6-0.4-1.1-0.5-1.9,0.2c-1.5,1.4-3.8,1.4-5.6,1.3
		c-1-0.1-2-0.6-3.1-0.1c-0.4,0.1-0.8,0.5-1.1-0.1c-0.3-0.6,0.2-0.9,0.6-1.1c4.3-2.2,8.7-4,13.5-1.5c0.2-1.6-1.8-3.3-4.8-3.9
		c0.5,1.8-0.7,1.5-1.7,1.3c-0.5-0.1-0.9-0.1-1.4-0.3c-3-0.9-6.2,0.7-9.2-0.7c-0.2-0.1-0.7,0-0.7,0.2c-0.1,0.2,0,0.6,0.1,0.9
		c0.8,1.5,1.6,3,2.3,4.5c0.4,0.9,0.3,1.6-1.2,2.1c0.9-3.1-1.6-3.3-3.3-4.2c-0.7-0.4-1.6-0.8-2.3-0.3c-0.8,0.6,0,1.4,0.2,2
		C238.3,148.8,238.4,149.4,238.6,150z M197.3,168.6c-1.3-21.9-2.2-43.8-8.2-65.1C189.3,125.5,193.7,147,197.3,168.6z M226,191.9
		c0.9,2.6,1.5,4.7,2.7,6.6c1.7,2.8,4.1,4.1,7.3,4c6.1-0.3,9.9-4.4,13.8-8.4c1-1-0.1-2.5-0.9-3.3c-0.7-0.7-1.1,0.5-1.6,0.9
		c-3.6,3-7.5,4.8-12.5,4.1C231.7,195.3,229.2,193.6,226,191.9z M225.5,153.4c-4.8,4.1-4.2,9.6-4.2,14.8c0,5.2,0.6,10.3,1,15.5
		c0.3,0,0.6,0,0.9-0.1C222.8,173.5,223.1,163.4,225.5,153.4z M255.8,140c-0.6-0.8-0.9-1.2-1.1-1.6c-1.7-2.7-4.7-2.6-7.2-2.7
		c-2.4,0-5.2,0.2-7.1,2.4c-0.4,0.4-0.9,0.7-1.4,1c-0.4,0.2-1.4-0.1-1.1,0.8c0.2,0.8,1.1,0.7,1.7,0.5
		C244.7,138.9,249.9,138.5,255.8,140z M254,186.2c3.7-5.1,12.4-27.6,9.3-30.7c-0.3,2.3-0.4,4.6-0.8,6.9c-1.4,7.7-4.6,14.7-8.5,21.3
		C253.5,184.6,253.5,185.4,254,186.2z M208.3,174.5c1.7-8.6,3.4-17.2,5.1-25.8C209.5,156.8,208.9,165.7,208.3,174.5z M258,183.6
		c4.3-3.3,8.7-15.1,7.1-19.2C263.7,171.2,261,177.3,258,183.6z M222.8,187.7c-1.2,4.3,0.7,11.9,4.7,13.1
		C224.5,196.7,224.3,192,222.8,187.7z M205,179c-1.6,5-2.4,10.2-2.8,15.5C204.1,189.5,204.4,184.2,205,179z M224.2,93.4
		c0.6-1.6,0.9-2.7,0.3-4.1C223.9,90.6,223.7,91.7,224.2,93.4z M219,107.4c0.6-1.3,1-2.1,0.7-3.4C219.1,105.2,218.9,106,219,107.4z
		 M219.3,169.8c-0.3,1-0.6,1.9,0.2,3.3C219.3,171.6,219.3,170.7,219.3,169.8z M219.8,102.8c0.1,0,0.1,0,0.2,0c0-0.4,0-0.9,0-1.3
		c-0.1,0-0.1,0-0.2,0C219.8,101.9,219.8,102.4,219.8,102.8z M250.1,184.1c0.1-0.9,0.1-1.3-0.7-1.8
		C249.6,183,249.8,183.4,250.1,184.1z M248.2,180c0.1,0,0.2-0.1,0.3-0.1c-0.1-0.2-0.2-0.4-0.3-0.6c-0.1,0-0.1,0-0.2,0.1
		C248.1,179.5,248.2,179.7,248.2,180z M185.1,122.3c-0.1,0-0.2,0-0.2,0c0.1,0.2,0.1,0.4,0.4,1.1
		C185.1,122.7,185.1,122.5,185.1,122.3z M236.3,140.7c-0.1,0.1-0.2,0.2-0.2,0.2c0.1,0.1,0.2,0.2,0.3,0.2c0,0,0.1-0.1,0.1-0.2
		C236.5,140.9,236.4,140.8,236.3,140.7z M219.2,167.7c0-0.1,0-0.2,0-0.2c-0.1,0-0.2,0-0.2,0.1c0,0.1,0,0.2,0,0.2
		C219.1,167.7,219.2,167.7,219.2,167.7z"/>
	<path fill="#FFFFFF" d="M415.9,172.8c1.5-4.1,3.7-7.8,5.5-11.8c3-6.7,7.7-12.1,12.5-17.4c0.9-1,1.7-0.5,2.4,0.5
		c4.8,5.8,6.3,12.7,6.3,19.9c0,6.9-0.2,13.8-1.1,20.7c-0.6,4.4-2.8,8.7-1.8,13.4c0.1,0.7,0.1,1.6-0.8,1.7c-0.8,0.1-0.8-0.9-1-1.5
		c-0.2-0.6,0-1.4-0.7-1.8c-0.1,0-0.1,0-0.2,0c-2.3,0.1-2.5,0-1.1-2.7c2.9-5.5,2.7-11.5,3.4-17.4c0.8-7.7,0.9-15.4-1.5-22.9
		c-0.4-1.3-1.1-2.6-1.7-3.9c-0.9-2-2.1-1.9-3.6-0.6c-3.4,3-5.8,6.8-7.9,10.9c-3.2,6.1-6.2,12.3-7.4,19.1c-0.4,2.1,0.1,4.7-0.4,6.2
		c-1.3,3.7-0.7,7.8-2.3,11.3c-0.2,0.5-0.6,0.8-1.1,0.7c-0.7-0.1-1-0.7-1-1.4c-0.2-2.1-0.4-4.1-0.1-6.2c0.1-1,0-1.7-1.4-1.2
		c-5.9,2.1-11.5,5-17.5,6.7c-6.1,1.7-12.3,3.6-18.8,3.1c-2.8-0.2-5.4-1.6-7.9-2.9c-0.7-0.4-1.4-0.6-2.9-1.2c1.5,2.4,3.2,3.4,4.8,4.3
		c4.5,2.5,9.4,2.1,14.3,1.7c5.9-0.4,11.2-2.6,16.3-5.4c1.1-0.6,1.9-2.1,3.7-1.7c-0.4,1.2-1.3,1.9-2.2,2.5c-9,6.8-19.2,8.7-29.8,6
		c-8.5-2.1-12.9-8.7-13.4-17.3c-0.5-7.9,1.1-15.4,6.4-21.9c3.7-4.6,6.9-9.6,10.4-14.3c1.9-2.6,4.3-4.4,7.9-3.1
		c0.8,0.3,1.8,0,2.7-0.1c5.7-0.3,8.6,2.7,8.1,8.3c-0.1,1.7,1.2,3.2,0.3,5c-1.1,2.3-2.7,4.2-4.5,6c-3.7,3.7-7.6,7.2-11.9,10.1
		c-2.3,1.6-4.6,3.5-7.5,3.9c-2.2,0.3-2.3,1.6-2.1,3.3c1.5,9.9,8,14.6,17.9,12.9c6.9-1.2,13.4-3.5,20-5.9c2-0.7,3.9-1.4,5.9-2
		c0.9-0.3,1.3-0.8,1.4-1.7c0.4-9.7,0.7-19.3-0.2-29c-0.3-3.4-0.5-6.8-1.2-10.1c-0.2-0.8-0.4-2,0.7-2.4c1.2-0.4,1.6,0.9,2,1.7
		c1.2,2.6,1,5.5,1.3,8.2C416,159.7,415.8,166.2,415.9,172.8z M382,152c-0.7,0.3-1.4,0.4-1.9,0.7c-2.4,1.4-4.1,3.5-5.9,5.7
		c-3.1,3.6-3.8,7.8-5.6,11.7c-0.2,0.4-0.5,1.1,0.1,1.4c0.3,0.2,0.9-0.1,1.3-0.3c2.2-1.4,4.4-2.9,6.6-4.3c4.8-3.2,8.8-7,10.8-12.5
		c0.4-1,0.2-1.7-0.9-1.8C385,152.5,383.4,153.2,382,152z M362.9,169.7c-2.7,6.5-3.4,13.2,0,19.5c1.5,2.7,4.6,4.5,8.5,5.4
		c-0.7-0.9-0.9-1.3-1.2-1.6c-2.7-2.3-4.1-5.2-4.8-8.6c-0.6-2.8-0.5-6-3.2-8.1c-0.3-0.3-0.5-0.8-0.1-1.2c0.4-0.5,0.9-0.2,1.3,0.1
		c0.3,0.2,0.7,0.5,1,0.7C366.3,173.3,363.3,171.8,362.9,169.7z M369.5,160.2c-2.2,1.4-3.3,3.6-4.5,5.7c-0.3,0.5-1,1.1-0.2,1.6
		c0.7,0.4,1.6,0.1,1.9-0.7C367.7,164.6,368.6,162.4,369.5,160.2z M379.7,167.4c4.2-1.4,10.9-10.6,9.8-13
		C387.6,160,384.3,164.2,379.7,167.4z M374.2,173.7c-2.1,0.3-3.7,0.6-5.2,0.9c-0.6,0.1-1,0.6-0.9,1.3c0,0.5,0.4,0.7,0.8,0.6
		C370.6,175.9,372.4,175.4,374.2,173.7z M390.8,148.7c-0.7,0.6-0.7,1.1,0,1.6C391.2,149.8,391.1,149.3,390.8,148.7z M378.2,168.7
		c-0.6-0.1-1,0-1.3,0.6C377.5,169.4,378,169.3,378.2,168.7z"/>
	<path fill="#FFFFFF" d="M333.7,173.9c-4.1,7.5-5,15.3-4.4,23.3c0.3,3.4,0.3,6.9,0.5,10.4c0,0.8,0,1.6-0.9,1.9
		c-0.9,0.3-1.6-0.4-1.9-1.1c-0.5-1.3-2.5-1.1-2.5-3c0.2-8.4-1.5-16.7,0-25.3c1.2-6.6,0.7-13.5,0.7-20.3c0-7.5,1.2-15.1,0.3-22.6
		c-1.2-10.2-2.8-20.4-4.2-30.6c-0.7-4.9-1.5-9.8-2.6-14.6c-0.2-0.7-0.4-1.7,0.5-2c1-0.4,1.3,0.6,1.6,1.3c1.8,3.5,2.7,7.3,3.1,11.3
		c0-0.9,0-1.9,0-2.8c0-0.9,0-1.9,0-2.8c0-2-0.2-4.1,0.4-6.1c0.2-0.8,0.5-1.6,1.4-1.8c0.9-0.2,1.3,0.6,1.9,1.1
		c1.8,1.7,1.8,3.8,1.6,6.1c-0.7,9.6-0.8,19.3-0.7,29c0.1,7.4-0.2,14.7,0,22.1c0.1,3.7-0.1,7.4-0.4,11.2c-0.1,0.7-0.2,1.4,0.4,2.2
		c0.9-2.2,1.8-4.3,2.6-6.3c1.6-4,3.7-7.6,6.2-11.1c0.5-0.6,0.8-1.6,1.8-1.2c1.1,0.4,0.8,1.5,0.7,2.4c0,0.6-0.2,1.2-0.4,2.1
		c3.4-2.8,7.4-3.4,11-5c1.1-0.5,2.2-0.6,2.6,1c0.1,0.3-0.3,1.1-0.4,1.1c-3.4-0.4-2.5,3.7-4.7,4.6c-1,0.4-1.7,1.4-3,2.5
		c0.4-1.2,0.6-1.9,1-3.2c-2.5,2-4.8,3.7-5.3,6.1c-0.7,3.4-1.8,6.6-3.1,9.7c-1.4,3.4-1.2,6.7,0.3,9.9c2.3,5.3,2.8,11,2.9,16.6
		c0,4.1,2.1,6.9,5.3,9.2c1.9,1.3,4.8,0.9,6.3-0.8c1-1.1,2.1-2.1,3.2-3c0.5-0.4,1.2-0.9,1.9-0.2c0.6,0.6,0.7,1.4,0.2,2.2
		c-0.8,1.2-2.3,2-1.8,3.9c0,0.2-0.5,0.6-0.8,0.7c-3.3,1.7-10.2,0.8-12.6-1.8c-2.8-3-4.9-6.4-5.9-10.5c-1.1-4.2-1.9-8.5-2.3-12.8
		C334.2,175.7,333.9,174.9,333.7,173.9z M323.4,108.4c0.8,5.4,1.5,10.7,2.3,16.1C325.9,119,325.1,113.6,323.4,108.4z M327.2,204.9
		c0-1.8,0-3.5,0-6C326.1,201.4,326.7,203.1,327.2,204.9z M335.3,151.2c1.4-1.5,3-2.4,2.6-4.6C336.9,147.9,335.8,149.1,335.3,151.2z
		 M328.8,180.2c0.5-1.6,1-2.9,1.5-4.3C328.9,177,328.1,178.2,328.8,180.2z M335.8,160.5c-1.6,1.2-1.4,2.5-1.2,3.7
		C334.9,163.2,335.2,162.1,335.8,160.5z M330.1,174.2c1.2-0.7,1.4-1.2,1.3-2.3C331,172.7,330.7,173.2,330.1,174.2z M337,177.9
		c0.1,1.2,0.2,1.7,0.3,2.6C337.7,179.5,337.5,179,337,177.9z M326.4,102.6c0-0.1,0-0.2,0-0.2c-0.1,0-0.2,0.1-0.2,0.1
		c0,0,0.1,0.1,0.1,0.2C326.3,102.6,326.3,102.6,326.4,102.6z M337.6,182.1c0.1,0,0.1,0,0.2,0c0-0.2,0-0.4-0.1-0.6
		c-0.1,0-0.1,0-0.2,0C337.6,181.7,337.6,181.9,337.6,182.1z M338.1,183.1c-0.3,0.7-0.3,0.9,0.2,1.1
		C338.2,183.8,338.2,183.6,338.1,183.1z M326.3,100.8c0.1,0,0.1,0,0.2,0c0-0.2,0-0.3,0-1.3C326.3,100.4,326.3,100.6,326.3,100.8z"/>
	<path fill="#FFFFFF" d="M278.1,153.7c0.7-7.3-0.1-14.5-0.7-21.8c-0.7-8.3-1.3-16.6-2-24.9c0-0.6,0.1-1.3,0.2-2
		c0.1-0.6,0-1.4,0.8-1.5c0.7-0.1,0.7,0.7,1,1.1c0.3,0.4,0.4,1,1,0.8c2.1-0.5,2.6,0.9,2.8,2.4c0.3,3.1,0.3,6.2,0.5,9.9
		c-0.9-1.6-0.2-3.1-1.7-4.5c1.8,27.8,1.2,55.1-0.2,82.4c0.3-1.1,0.7-2.2,0.8-3.3c0.8-7.6,3.7-14.6,5-22.1
		c2.2-12.8,5.6-25.3,10.7-37.3c2-4.7,3.9-9.3,5.9-13.9c0.4-0.9,1.1-1.4,1.9-0.9c0.9,0.5,0.7,1.5,0.3,2.2c-1,1.7-0.8,3.8-1.6,5.4
		c-1,1.9-2,3.7-2.7,5.7c-2.9,8.4-6.3,16.6-8.7,25.1c-2.5,8.7-4.1,17.6-4.4,26.7c-0.1,3.5,1.7,6.4,3,9.3c2.4,5.1,7.7,6.6,13.1,4.4
		c1.8-0.7,3.8-1.1,5.4-2.5c0.3-0.2,0.7-0.4,1-0.1c0.3,0.4,0.2,0.8-0.1,1.2c-0.9,1.1-1.9,2.2-2.8,3.4c-0.6,0.8-1.7,1.5-0.3,2.7
		c0.6,0.5,0.2,1.1-0.6,1c-1.5-0.1-2.7,0.6-3.9,1.5c-3.4,2.6-6.9,1.4-9.2-2.7c-2.2-4-5.7-7-9.4-10c-0.7,2.8-1.3,5.4-2.1,8
		c-0.9,3-1.6,5.9-1.6,9c0,1.6-1.5,2.1-2.6,2.3c-1.2,0.2-1.3-1.1-1.3-1.9c-0.5-4.7,0.3-9.5,0.8-14.1c1.2-10.9,1.7-21.9,0.4-32.8
		c-1-8.8-1.6-17.7-2.7-26.5c-1.2-9.8-2.5-19.5-2.6-29.4c0-1.7,0.2-3.4,0.4-5.1c0-0.4,0-1,0.6-1c0.4,0,0.9,0.3,1,0.6
		c0.5,0.9,1.2,1.8,1,3.1c-0.4-0.1-0.7-0.2-1.4-0.3C272.8,120.3,277.1,136.9,278.1,153.7z M303.2,199.4c-1.6,0.3-3.2,0.5-4.8,0.9
		c-0.3,0.1-0.7,0.3-1,0.4c0.2,0.4,0.3,0.8,0.6,1C299.3,202.9,302.3,201.5,303.2,199.4z"/>
	<path fill="#FFFFFF" d="M336,106.9c4.3-0.2,9.4,2.8,9.4,5.4C341.6,111.4,339.9,107.3,336,106.9z"/>
</g>
</svg>
